<?xml version="1.0" encoding="UTF-8"?>
<svg id="_图层_2" data-name="图层 2" xmlns="http://www.w3.org/2000/svg" viewBox="0 0 2385.87 2507.44">
  <g id="_图层_1-2" data-name="图层 1" fill="rgba(0,128,128,0.1)">
    <g>
      <path d="M735.56,1035.57c-3.96-3.99-15.92-10.82-21.48-11.8-30.6-5.4-187.11-7.48-219.07-3.23-10.86,1.44-15.26,4.99-22.14,13.35l-160.73,429.39c-14.74,58.27,78.2,57.14,119.73,68.98,259.92,74.08,485.94,219.54,756.91,267.99,27.2,4.86,195.26,31.3,199.93,14.16,1.2-4.41.33-13.78-.52-18.27-18.3-96.46-133.37-369.38-133.37-369.38-7.03-14.17,2.06-29.41,6.59-39.13,6.57-14.1,73.01-120.06,82.11-131.95,11.05-14.44,37.62-5.24,44.71,12.36,37.96,119.82,77.04,239.85,121.94,357.24,15.09,39.45,36.42,105.1,55.68,139.53,4.01,7.16,10.83,17.9,19.83,18.04,20.99.32,87.67-22.79,110.81-31.12,285.73-102.89,497.9-354.49,598.03-635.4,10.05-28.2,22.47-121.12,55.65-122.12,53.37-1.61,32.93,87.6,26.33,119.79-75.8,369.25-383.75,703.3-742.27,815.04-292.14,91.05-562.57,37.39-840.6-66.38-158.38-59.11-440.19-213.98-596.64-110.81-54.23,35.76-57.93,82.86-134.11,60.69-24.63-7.17-65.27-22.31-62.75-53.06L641.72,58.05c25.91-65.21,127.68-73.25,162.76-12.04l358.26,959.46c10.83,22.18,19.67,24.07,35.05,3.52,143.28-232.34,296.82-458.38,441.76-689.61,12.66-20.2,46.74-66.21,53.41-84.1,4.07-10.92,12.25-31.31-3.81-31.31l-682.75-4.94c-10.61-5.05-15.19-11.71-16.7-23.23-3.81-29.14-3.79-126.58.03-155.72,2.04-15.59,8-20.62,24.35-20.02l901.08.1c72.2,3.67,115.04,78.5,73.79,140.66l-943.86,1452c-18.11,26.47-48.79,34.89-75.23,13.72-18.7-14.97-59.73-128.55-71.99-158.72-49.98-122.99-91.75-253.85-144.21-374.9-4.71-10.87-10.24-29.39-18.12-37.34ZM727.92,355.43l-13.31,1.78-172.77,457.12c2.9,4.55,5.95,5.84,11.1,6.77,39.75,7.15,244.66-1.31,259.89,10.75,13.33,10.56,68.52,172.81,80.62,203.34,28.89,72.9,58.45,153.16,91.29,223.71,6.46,13.88,7.42,28.68,24.21,22.78,9.96-3.5,46.55-49.51,47.5-59.24l-328.53-867Z"/>
      <g>
        <path d="M226.71,2445.81H88.92l-24.65,59.87H0l129.86-299.34h55.91l129.42,299.34h-63.83l-24.65-59.87ZM204.7,2392.54l-47.1-114.45-47.1,114.45h94.2Z"/>
        <path d="M666.03,2206.33v299.34h-46.22l-162-187.97v187.97h-59.87v-299.34h44.46l163.76,193.25v-193.25h59.87Z"/>
        <path d="M1009.38,2451.09v54.59h-250.48v-28.17l160.68-216.58h-154.07v-54.59h241.67v28.17l-153.63,216.58h155.83Z"/>
        <path d="M1224.64,2410.59h-61.63v95.08h-59.87v-299.34h126.34c67.35,0,117.09,40.5,117.09,102.13,0,41.82-22.89,73.96-58.55,90.24l77.92,106.97h-72.63l-68.67-95.08ZM1163.01,2355.13h64.27c33.02,0,60.31-18.05,60.31-46.66s-27.29-46.66-60.31-46.66h-64.27v93.32Z"/>
        <path d="M1505.05,2261.8v68.67h142.63v55.47h-142.63v64.27h160.23v55.47h-220.1v-299.34h220.1v55.47h-160.23Z"/>
        <path d="M2322.48,2206.33l-65.15,206.9-70.87-206.9h-63.8l-65.15,206.9-70.87-206.9h-50.62l-70.87,206.9-65.15-206.9h-63.39l98.61,301.1h58.99l67.35-193.25,66.91,193.25h58.99l67.41-205.85c24.47,68.62,48.95,137.24,73.42,205.85h58.99l98.61-301.1h-63.39Z"/>
      </g>
    </g>
  </g>
</svg>